<svg width="25" height="28" viewBox="0 0 25 28" fill="none" xmlns="http://www.w3.org/2000/svg">
<path d="M2.21402 24.8317L0 0H24.3269L22.111 24.8276L12.1486 27.5898L2.21402 24.8317Z" fill="#1572B6"/>
<path d="M12.1638 25.4786L20.2135 23.2468L22.1074 2.03052H12.1638V25.4786Z" fill="#33A9DC"/>
<path d="M12.1636 11.0269H16.1935L16.4721 7.90834H12.1636V4.86279H19.8004L19.7274 5.67982L18.979 14.0722H12.1636V11.0269Z" fill="white"/>
<path d="M12.1819 18.9363L12.1685 18.9402L8.7768 18.0242L8.55969 15.5952H5.50293L5.92977 20.3771L12.168 22.1088L12.1822 22.1047L12.1819 18.9363Z" fill="#EBEBEB"/>
<path d="M15.9347 13.9434L15.5678 18.022L12.1711 18.9388V22.1074L18.4145 20.3771L18.4605 19.8625L18.9904 13.9434H15.9347Z" fill="white"/>
<path d="M12.1743 4.86279V7.90807H4.81806L4.75681 7.22365L4.61817 5.67982L4.54517 4.86279H12.1743ZM12.1637 11.0272V14.0727H8.81489L8.75392 13.3883L8.61501 11.8442L8.542 11.0272H12.1637Z" fill="#EBEBEB"/>
</svg>
