<svg width="23" height="33" viewBox="0 0 23 33" fill="none" xmlns="http://www.w3.org/2000/svg">
<g clip-path="url(#clip0_183_30)">
<path d="M23 6.38013L20.9047 29.8535L11.486 32.4646L2.0933 29.857L0 6.38013H23Z" fill="#E44D26"/>
<path d="M11.5 30.4686L19.1109 28.3586L20.9014 8.29956H11.5V30.4686Z" fill="#F16529"/>
<path d="M7.42646 14.0585H11.4997V11.1807H4.27979L4.34874 11.9532L5.05644 19.8878H11.5V17.0071H7.68972L7.42646 14.0585ZM8.07542 21.326H5.18501L5.58824 25.8469L11.4865 27.4832L11.4997 27.4797V24.485L11.4871 24.4882L8.28055 23.6224L8.07601 21.326H8.07542Z" fill="#EBEBEB"/>
<path d="M11.49 19.8861H15.0356L14.7013 23.6204L11.4897 24.4871V27.4827L17.3921 25.8464L17.4354 25.3599L18.1121 17.7794L18.1822 17.0062H11.49V19.8861ZM11.49 14.0512V14.0583H18.4443L18.5028 13.411L18.634 11.9501L18.7026 11.1775H11.49V14.0498V14.0512Z" fill="white"/>
</g>
<defs>
<clipPath id="clip0_183_30">
<rect width="23" height="32.4646" fill="white"/>
</clipPath>
</defs>
</svg>
