<svg width="30" height="30" viewBox="0 0 30 30" fill="none" xmlns="http://www.w3.org/2000/svg">
<g clip-path="url(#clip0_185_35)">
<path d="M0 0H30V30H0V0Z" fill="#F7DF1E"/>
<path d="M7.88806 25.07L10.1838 23.6807C10.6267 24.4659 11.0296 25.1304 11.9961 25.1304C12.9224 25.1304 13.5066 24.7681 13.5066 23.3585V13.7728H16.3258V23.3984C16.3258 26.3183 14.6142 27.6475 12.1169 27.6475C9.86161 27.6475 8.55251 26.4795 7.88794 25.0698M17.8571 24.7679L20.1525 23.4389C20.7569 24.4258 21.5423 25.1507 22.9317 25.1507C24.0999 25.1507 24.8447 24.5666 24.8447 23.7611C24.8447 22.7945 24.0795 22.4521 22.7907 21.8884L22.086 21.5861C20.052 20.7204 18.7028 19.6329 18.7028 17.3372C18.7028 15.2227 20.3138 13.6116 22.8311 13.6116C24.6234 13.6116 25.9122 14.2359 26.8384 15.8671L24.6433 17.2768C24.1599 16.4109 23.6365 16.0686 22.831 16.0686C22.0053 16.0686 21.4817 16.5922 21.4817 17.2768C21.4817 18.1226 22.0053 18.4651 23.2135 18.9887L23.9183 19.2907C26.3147 20.3179 27.6639 21.3649 27.6639 23.7209C27.6639 26.2584 25.6703 27.6478 22.992 27.6478C20.3741 27.6478 18.6825 26.3993 17.857 24.7681" fill="black"/>
</g>
<defs>
<clipPath id="clip0_185_35">
<rect width="30" height="30" fill="white"/>
</clipPath>
</defs>
</svg>
