<svg width="48" height="48" viewBox="0 0 48 48" fill="none" xmlns="http://www.w3.org/2000/svg">
<g clip-path="url(#clip0_97_31)">
<path d="M0 24C0 10.745 10.745 0 24 0C37.255 0 48 10.745 48 24C48 37.255 37.255 48 24 48C10.745 48 0 37.255 0 24Z" fill="white"/>
<path d="M26.3336 20.2934C26.3336 18.9505 25.3621 18.2092 23.6557 18.2092H20.5169V22.5356H23.1637C25.2064 22.5295 26.3336 21.7274 26.3336 20.2934ZM37.7616 19.5156C37.1699 17.638 37.0827 15.3351 37.1512 13.5547C37.2198 11.7014 35.7375 10 33.7447 10H13.2678C11.2687 10 9.7927 11.7075 9.86121 13.5547C9.92349 15.3351 9.84253 17.638 9.25089 19.5156C8.65303 21.3993 7.65036 22.5903 6 22.7422V24.474C7.64413 24.6259 8.65303 25.8168 9.25089 27.7005C9.84253 29.5781 9.92972 31.8811 9.86121 33.6615C9.7927 35.5148 11.2749 37.2161 13.2678 37.2161H33.7384C35.7375 37.2161 37.2135 35.5087 37.145 33.6615C37.0827 31.8811 37.1637 29.5781 37.7553 27.7005C38.3532 25.8168 39.3559 24.6259 41 24.474V22.7422C39.3621 22.5903 38.3532 21.3993 37.7616 19.5156ZM24.2598 30.8481H18.1628V16.3681H24.2286C26.9253 16.3681 28.694 17.7899 28.694 19.9774C28.694 21.5148 27.5044 22.888 25.9849 23.125V23.204C28.0525 23.4227 29.4413 24.8203 29.4413 26.7465C29.4413 29.3047 27.492 30.8481 24.2598 30.8481ZM23.637 24.2431H20.5169V29.0069H23.774C25.9039 29.0069 27.0311 28.1745 27.0311 26.6068C27.0311 25.0451 25.8728 24.2431 23.637 24.2431Z" fill="#563D7C"/>
</g>
<defs>
<clipPath id="clip0_97_31">
<rect width="48" height="48" fill="white"/>
</clipPath>
</defs>
</svg>
