<svg width="48" height="48" viewBox="0 0 48 48" fill="none" xmlns="http://www.w3.org/2000/svg">
<path d="M0 24C0 10.745 10.745 0 24 0C37.255 0 48 10.745 48 24C48 37.255 37.255 48 24 48C10.745 48 0 37.255 0 24Z" fill="white"/>
<path fill-rule="evenodd" clip-rule="evenodd" d="M40.6666 23.9999C40.6666 33.2041 33.2041 40.6666 23.9999 40.6666C14.7958 40.6666 7.33325 33.2041 7.33325 23.9999C7.33325 14.7958 14.7958 7.33325 23.9999 7.33325C33.2041 7.33325 40.6666 14.7958 40.6666 23.9999Z" fill="url(#paint0_linear_105_4)"/>
<path fill-rule="evenodd" clip-rule="evenodd" d="M28.3284 26.4683C27.6325 27.2308 26.6559 27.6167 26.1984 27.6167C25.6692 27.6167 25.38 27.2925 25.3209 26.805C25.3009 26.6183 25.3075 26.43 25.3409 26.2442C25.5159 25.1525 25.9175 24.4742 25.8925 24.2675C25.885 24.2083 25.8517 24.1792 25.8084 24.1792C25.47 24.1792 24.2834 25.4042 24.1034 26.215L23.9634 26.8642C23.8717 27.3217 23.4234 27.6158 23.115 27.6158C22.9675 27.6158 22.8559 27.5425 22.8367 27.38C22.8309 27.3058 22.8367 27.2317 22.8542 27.1583L22.92 26.8167C22.28 27.295 21.59 27.6183 21.2667 27.6183C20.825 27.6183 20.5775 27.3825 20.4892 27.0275C20.1975 27.4117 19.8117 27.6183 19.4009 27.6183C18.8759 27.6183 18.37 27.2708 18.1275 26.7567C17.7817 27.145 17.3717 27.525 16.8809 27.8392C16.1567 28.2975 15.3509 28.6658 14.3959 28.6658C13.5142 28.6658 12.7659 28.1942 12.3517 27.8108C11.7375 27.2358 11.4134 26.3792 11.3175 25.5975C11.0159 23.1333 12.5159 19.9025 14.84 18.4867C15.3734 18.1617 15.9709 18 16.5134 18C17.63 18 18.4634 18.7983 18.58 19.7533C18.685 20.6133 18.3417 21.3567 17.3875 21.8375C16.9009 22.0842 16.6592 22.0725 16.5834 21.955C16.5325 21.8767 16.5617 21.7433 16.6592 21.6625C17.5559 20.9133 17.5725 20.2983 17.4675 19.4317C17.3992 18.8742 17.0325 18.5167 16.6209 18.5167C14.8584 18.5167 12.33 22.4708 12.6817 25.3475C12.8192 26.4692 13.5067 27.7675 14.9167 27.7675C15.3867 27.7675 15.885 27.635 16.3284 27.4133C17.1017 27.0183 17.5392 26.705 17.9784 26.1933C17.87 24.8633 19.0117 23.1933 20.71 23.1933C21.445 23.1933 22.0534 23.4883 22.125 24.0783C22.215 24.8158 21.5867 24.9633 21.3517 24.9633C21.1459 24.9633 20.8159 24.9042 20.7925 24.7125C20.7675 24.5058 21.2375 24.6242 21.1792 24.1517C21.1434 23.8567 20.8367 23.7533 20.5434 23.7533C19.4859 23.7533 18.9017 25.2283 19.0142 26.1442C19.065 26.5575 19.2767 26.97 19.6592 26.97C19.9675 26.97 20.4125 26.5275 20.5834 25.8783C20.6917 25.4358 21.11 25.1408 21.4192 25.1408C21.5809 25.1408 21.6925 25.2142 21.7125 25.3767C21.7192 25.4358 21.7142 25.51 21.695 25.5983C21.66 25.79 21.5125 26.4283 21.52 26.56C21.525 26.675 21.5917 26.8333 21.7917 26.8333C21.95 26.8333 22.5334 26.5183 23.0734 26.035C23.2425 25.1592 23.4517 24.0758 23.4684 23.99C23.5342 23.635 23.6617 23.2692 24.3817 23.2692C24.5292 23.2692 24.6409 23.3425 24.6625 23.52C24.6692 23.5783 24.6642 23.6533 24.645 23.7417L24.4434 24.6525C25.075 23.8108 26.0567 23.1925 26.645 23.1925C26.895 23.1925 27.0875 23.3242 27.12 23.5908C27.1384 23.7392 27.095 23.9892 26.9975 24.2692C26.7884 24.8442 26.5534 25.7083 26.3975 26.4525C26.3642 26.6108 26.4192 26.8492 26.7084 26.8492C26.9392 26.8492 27.68 26.5667 28.2792 25.7758C28.275 25.6642 28.2734 25.5508 28.2734 25.4358C28.2734 24.8158 28.3175 24.3142 28.435 23.9467C28.5525 23.5625 29.0375 23.195 29.36 23.195C29.5217 23.195 29.6392 23.2833 29.6392 23.46C29.6392 23.5192 29.6242 23.5933 29.595 23.6667C29.375 24.3158 29.2575 24.9217 29.2575 25.5258C29.2575 25.865 29.3309 26.4108 29.405 26.6908C29.42 26.75 29.4334 26.8092 29.4925 26.8092C29.595 26.8092 30.2859 26.1308 30.785 25.3042C30.3434 25.0233 30.0942 24.5075 30.0942 23.8725C30.0942 22.8108 30.7259 22.2642 31.3425 22.2642C31.8275 22.2642 32.2675 22.6183 32.2675 23.3258C32.2675 23.7692 32.0909 24.2708 31.8425 24.7575C31.8425 24.7575 31.945 24.7725 31.9892 24.7725C32.3709 24.7725 32.665 24.595 32.8275 24.4033C32.9009 24.32 32.9692 24.255 33.0342 24.2167C33.5259 23.6225 34.2467 23.1933 35.0925 23.1933C35.8125 23.1933 36.4342 23.4742 36.5059 24.0642C36.5975 24.8158 35.955 24.9642 35.7342 24.9642C35.5142 24.9642 35.1834 24.905 35.16 24.7133C35.1367 24.5217 35.6192 24.625 35.5634 24.1683C35.5275 23.8733 35.2192 23.755 34.925 23.755C33.94 23.755 33.2634 25.0683 33.3934 26.13C33.445 26.5583 33.6425 26.9717 34.025 26.9717C34.3334 26.9717 34.7942 26.5283 34.9642 25.88C35.0734 25.4517 35.4909 25.1425 35.7992 25.1425C35.9459 25.1425 36.0725 25.2158 36.0942 25.3933C36.105 25.4817 36.0692 25.6742 35.905 26.3667C35.8375 26.6617 35.8242 26.9125 35.85 27.1192C35.9025 27.5475 36.0984 27.8275 36.28 27.99C36.3459 28.0483 36.385 28.1217 36.39 28.1675C36.4042 28.2858 36.3142 28.3892 36.1675 28.3892C36.1234 28.3892 36.065 28.3892 36.0167 28.36C35.26 28.05 34.9459 27.5342 34.8575 27.0467C34.5659 27.415 34.1792 27.6217 33.7825 27.6217C33.1067 27.6217 32.4467 27.0308 32.3534 26.2642C32.315 25.9492 32.3525 25.61 32.4559 25.2775C32.1817 25.4467 31.8867 25.5408 31.6217 25.5408C31.5334 25.5408 31.46 25.5408 31.3725 25.5258C30.7117 26.4842 30.0209 27.1483 29.4917 27.4442C29.2717 27.5625 29.0667 27.6217 28.9192 27.6217C28.8009 27.6217 28.6692 27.5925 28.6109 27.4892C28.4725 27.2583 28.3817 26.895 28.3284 26.4683ZM30.7225 23.3258C30.7225 23.7392 30.9275 24.1675 31.1925 24.4475C31.2959 24.1667 31.3542 23.8867 31.3542 23.6058C31.3542 23.0742 31.1484 22.8383 30.9867 22.8383C30.7959 22.8383 30.7225 23.105 30.7225 23.3258Z" fill="white"/>
<defs>
<linearGradient id="paint0_linear_105_4" x1="35.8858" y1="37.1083" x2="12.4583" y2="11.2708" gradientUnits="userSpaceOnUse">
<stop stop-color="#823AF3"/>
<stop offset="0.36" stop-color="#4B66E1"/>
<stop offset="0.906" stop-color="#01F1C4"/>
</linearGradient>
</defs>
</svg>
