<svg width="48" height="48" viewBox="0 0 48 48" fill="none" xmlns="http://www.w3.org/2000/svg">
<g clip-path="url(#clip0_97_131)">
<path d="M0 24C0 10.745 10.745 0 24 0C37.255 0 48 10.745 48 24C48 37.255 37.255 48 24 48C10.745 48 0 37.255 0 24Z" fill="white"/>
<path d="M30.4 8.60129H28.381L30.4807 10.8798V11.9646H26.156V10.6945H28.2555L26.156 8.4159V7.33008H30.4V8.60129ZM25.2985 8.60129H23.2795L25.3792 10.8798V11.9646H21.0542V10.6945H23.1539L21.0542 8.4159V7.33008H25.2985V8.60129ZM20.247 8.65324H18.0683V10.6414H20.247V11.9646H16.5195V7.33008H20.247V8.65324Z" fill="#131313"/>
<path d="M13.5504 38.9118L11.3364 14.0801H35.6633L33.4474 38.9077L23.485 41.6699L13.5504 38.9118Z" fill="#1572B6"/>
<path d="M23.5002 39.5587L31.55 37.3269L33.4438 16.1106H23.5002V39.5587Z" fill="#33A9DC"/>
<path d="M23.5 25.107H27.5299L27.8086 21.9884H23.5V18.9429H31.1368L31.0638 19.7599L30.3154 28.1522H23.5V25.107Z" fill="white"/>
<path d="M23.5183 33.0164L23.5049 33.0203L20.1132 32.1042L19.8961 29.6753H16.8394L17.2662 34.4572L23.5044 36.1888L23.5186 36.1847L23.5183 33.0164Z" fill="#EBEBEB"/>
<path d="M27.2712 28.0234L26.9042 32.102L23.5076 33.0189V36.1875L29.751 34.4571L29.7969 33.9425L30.3268 28.0234H27.2712Z" fill="white"/>
<path d="M23.5108 18.9429V21.9881H16.1545L16.0932 21.3037L15.9546 19.7599L15.8816 18.9429H23.5108ZM23.5001 25.1072V28.1528H20.1513L20.0903 27.4684L19.9514 25.9243L19.8784 25.1072H23.5001Z" fill="#EBEBEB"/>
</g>
<defs>
<clipPath id="clip0_97_131">
<rect width="48" height="48" fill="white"/>
</clipPath>
</defs>
</svg>
