<svg width="48" height="48" viewBox="0 0 48 48" fill="none" xmlns="http://www.w3.org/2000/svg">
<g clip-path="url(#clip0_97_24)">
<path d="M0 24C0 10.745 10.745 0 24 0C37.255 0 48 10.745 48 24C48 37.255 37.255 48 24 48C10.745 48 0 37.255 0 24Z" fill="white"/>
<path d="M19.1999 38.4001C20.4729 38.4001 21.6938 37.8943 22.594 36.9942C23.4942 36.094 23.9999 34.8731 23.9999 33.6V28.8H19.1999C17.9269 28.8 16.706 29.3058 15.8058 30.2059C14.9056 31.1061 14.3999 32.327 14.3999 33.6C14.3999 34.8731 14.9056 36.094 15.8058 36.9942C16.706 37.8943 17.9269 38.4001 19.1999 38.4001Z" fill="#0ACF83"/>
<path d="M14.3999 24C14.3999 22.7269 14.9056 21.506 15.8058 20.6058C16.706 19.7057 17.9269 19.2 19.1999 19.2H23.9999V28.7999H19.1999C18.5696 28.7999 17.9454 28.6758 17.363 28.4346C16.7807 28.1933 16.2515 27.8398 15.8058 27.3941C15.3601 26.9483 15.0065 26.4192 14.7653 25.8368C14.5241 25.2545 14.3999 24.6303 14.3999 24Z" fill="#A259FF"/>
<path d="M14.3999 14.4001C14.3999 13.1271 14.9056 11.9062 15.8058 11.006C16.706 10.1058 17.9269 9.6001 19.1999 9.6001H23.9999V19.2001H19.1999C17.9269 19.2001 16.706 18.6944 15.8058 17.7942C14.9056 16.894 14.3999 15.6731 14.3999 14.4001Z" fill="#F24E1E"/>
<path d="M24 9.6001H28.8C30.073 9.6001 31.2939 10.1058 32.1941 11.006C33.0943 11.9062 33.6 13.1271 33.6 14.4001C33.6 15.6731 33.0943 16.894 32.1941 17.7942C31.2939 18.6944 30.073 19.2001 28.8 19.2001H24V9.6001Z" fill="#FF7262"/>
<path d="M33.6 24C33.6 25.273 33.0943 26.4939 32.1941 27.3941C31.2939 28.2942 30.073 28.7999 28.8 28.7999C27.527 28.7999 26.3061 28.2942 25.4059 27.3941C24.5057 26.4939 24 25.273 24 24C24 22.7269 24.5057 21.506 25.4059 20.6058C26.3061 19.7057 27.527 19.2 28.8 19.2C30.073 19.2 31.2939 19.7057 32.1941 20.6058C33.0943 21.506 33.6 22.7269 33.6 24Z" fill="#1ABCFE"/>
</g>
<defs>
<clipPath id="clip0_97_24">
<rect width="48" height="48" fill="white"/>
</clipPath>
</defs>
</svg>
