<svg width="48" height="48" viewBox="0 0 48 48" fill="none" xmlns="http://www.w3.org/2000/svg">
<path d="M0 24C0 10.745 10.745 0 24 0C37.255 0 48 10.745 48 24C48 37.255 37.255 48 24 48C10.745 48 0 37.255 0 24Z" fill="white"/>
<path fill-rule="evenodd" clip-rule="evenodd" d="M23.499 7.00591C13.8362 7.00591 6 14.8408 6 24.5049C6 32.2371 11.0135 38.7943 17.9668 41.1093C18.842 41.2714 19.1637 40.7289 19.1637 40.2664C19.1637 39.8491 19.1462 38.4708 19.1391 37.0097C14.2703 38.0684 13.2439 34.9441 13.2439 34.9441C12.4481 32.9211 11.301 32.3831 11.301 32.3831C9.71332 31.2959 11.4218 31.3198 11.4218 31.3198C13.1786 31.4426 14.1036 33.122 14.1036 33.122C15.6655 35.7973 18.1987 35.0229 19.1966 34.5765C19.3542 33.4456 19.8064 32.6731 20.3076 32.2358C16.4205 31.7946 12.3344 30.2935 12.3344 23.5877C12.3344 21.6777 13.0191 20.1159 14.1372 18.8912C13.9551 18.4494 13.3557 16.6706 14.3058 14.2607C14.3058 14.2607 15.7752 13.7898 19.1198 16.0544C20.5149 15.6675 22.0115 15.4724 23.4978 15.466C24.9852 15.4724 26.4844 15.6668 27.8815 16.0544C31.2216 13.7911 32.6897 14.2607 32.6897 14.2607C33.6411 16.6712 33.0443 18.4513 32.8622 18.8912C33.9841 20.1159 34.663 21.6777 34.663 23.5877C34.663 30.309 30.5679 31.7868 26.6724 32.2203C27.3002 32.7628 27.8609 33.8279 27.8609 35.4595C27.8609 37.7996 27.8408 39.6857 27.8408 40.2612C27.8408 40.7269 28.1561 41.2714 29.0435 41.1008C35.9928 38.7847 41 32.2267 41 24.499C41 14.8362 33.1651 7 23.5003 7L23.4991 7.00585L23.499 7.00591Z" fill="black"/>
</svg>
