<svg width="48" height="48" viewBox="0 0 48 48" fill="none" xmlns="http://www.w3.org/2000/svg">
<path d="M0 24C0 10.745 10.745 0 24 0C37.255 0 48 10.745 48 24C48 37.255 37.255 48 24 48C10.745 48 0 37.255 0 24Z" fill="white"/>
<g clip-path="url(#clip0_97_172)">
<path d="M35 14.3801L32.9047 37.8535L23.486 40.4646L14.0933 37.857L12 14.3801H35Z" fill="#E44D26"/>
<path d="M23.5 38.4686L31.1109 36.3586L32.9014 16.2996H23.5V38.4686Z" fill="#F16529"/>
<path d="M19.4265 22.0585H23.4997V19.1807H16.2798L16.3487 19.9532L17.0564 27.8878H23.5V25.0071H19.6897L19.4265 22.0585ZM20.0754 29.326H17.185L17.5882 33.8469L23.4865 35.4832L23.4997 35.4797V32.485L23.4871 32.4882L20.2805 31.6224L20.076 29.326H20.0754Z" fill="#EBEBEB"/>
<path d="M14.1396 8H15.603V9.44579H16.9415V8H18.4048V12.378H16.9415V10.912H15.603V12.378H14.1396V8ZM20.329 9.45193H19.041V8H23.0812V9.45193H21.7926V12.378H20.3293V9.45193H20.329ZM23.7225 8H25.249L26.1875 9.53813L27.1243 8H28.6507V12.378H27.1933V10.2078L26.1866 11.7644H26.1615L25.154 10.2078V12.3777H23.7223L23.7225 8ZM29.3789 8H30.8425V10.9307H32.9002V12.3777H29.3789V8Z" fill="black"/>
<path d="M23.49 27.8861H27.0356L26.7013 31.6204L23.4897 32.4871V35.4827L29.3921 33.8464L29.4354 33.3599L30.1121 25.7794L30.1822 25.0062H23.49V27.8861ZM23.49 22.0512V22.0583H30.4443L30.5028 21.411L30.634 19.9501L30.7026 19.1775H23.49V22.0498V22.0512Z" fill="white"/>
</g>
<defs>
<clipPath id="clip0_97_172">
<rect width="23" height="32.4646" fill="white" transform="translate(12 8)"/>
</clipPath>
</defs>
</svg>
