<svg width="48" height="48" viewBox="0 0 48 48" fill="none" xmlns="http://www.w3.org/2000/svg">
<g clip-path="url(#clip0_97_109)">
<path d="M0 24C0 10.745 10.745 0 24 0C37.255 0 48 10.745 48 24C48 37.255 37.255 48 24 48C10.745 48 0 37.255 0 24Z" fill="white"/>
<path d="M17.4167 31.4587L10.9587 26.3754L14.1667 20.4167L23.3747 24.0001L17.4167 31.4587Z" fill="#F57C00"/>
<path d="M37.3334 17.792L36.8334 33.2087L26.5834 37.3333L20.4167 33.3333L29.4167 24L37.3334 17.792Z" fill="#1E88E5"/>
<path d="M37.3333 17.7919L29.208 27.3753L25.5 15.3333L29.042 11.0833L37.3333 17.7919Z" fill="#2962FF"/>
<path d="M31.1253 21.0833L23.4999 32.7919L12.8333 36.6666L14.5419 30.6666L16.7499 23.2499L31.1253 21.0833Z" fill="#AB47BC"/>
<path d="M16.7501 23.2501L10.6667 21.2087L14.5421 10.6667L22.8754 11.6667L31.1254 21.0834L16.7501 23.2501Z" fill="#E91E63"/>
<path d="M15.3333 15.3333H31.9999V31.9999H15.3333V15.3333Z" fill="#000001"/>
<path d="M17.3333 28.9999H23.3333V29.9999H17.3333V28.9999ZM21.6666 18.5833V17.3333H18.3333V18.5833H19.3333V22.9166H18.3333V24.1666H21.6666V22.9166H20.7726V18.5833H21.6666ZM24.9166 24.3333C23.6666 24.3333 23.0026 23.6013 22.7499 23.3013L23.6906 22.2313C23.8606 22.4193 24.3333 22.9166 24.9166 22.9166C25.6666 22.9166 25.8333 22.1666 25.8333 21.7499V17.3333H27.3333V21.7499C27.3333 22.1659 27.3333 22.8333 26.8333 23.4999C26.4833 23.9666 25.6666 24.3333 24.9166 24.3333Z" fill="white"/>
</g>
<defs>
<clipPath id="clip0_97_109">
<rect width="48" height="48" fill="white"/>
</clipPath>
</defs>
</svg>
