<svg width="48" height="48" viewBox="0 0 48 48" fill="none" xmlns="http://www.w3.org/2000/svg">
<g clip-path="url(#clip0_97_39)">
<path d="M0 24C0 10.745 10.745 0 24 0C37.255 0 48 10.745 48 24C48 37.255 37.255 48 24 48C10.745 48 0 37.255 0 24Z" fill="white"/>
<g clip-path="url(#clip1_97_39)">
<path d="M9 9H39V39H9V9Z" fill="#F7DF1E"/>
<path d="M16.8881 34.07L19.1838 32.6807C19.6267 33.4659 20.0296 34.1304 20.9961 34.1304C21.9224 34.1304 22.5066 33.7681 22.5066 32.3585V22.7728H25.3258V32.3984C25.3258 35.3183 23.6142 36.6475 21.1169 36.6475C18.8616 36.6475 17.5525 35.4795 16.8879 34.0698M26.8571 33.7679L29.1525 32.4389C29.7569 33.4258 30.5423 34.1507 31.9317 34.1507C33.0999 34.1507 33.8447 33.5666 33.8447 32.7611C33.8447 31.7945 33.0795 31.4521 31.7907 30.8884L31.086 30.5861C29.052 29.7204 27.7028 28.6329 27.7028 26.3372C27.7028 24.2227 29.3138 22.6116 31.8311 22.6116C33.6234 22.6116 34.9122 23.2359 35.8384 24.8671L33.6433 26.2768C33.1599 25.4109 32.6365 25.0686 31.831 25.0686C31.0053 25.0686 30.4817 25.5922 30.4817 26.2768C30.4817 27.1226 31.0053 27.4651 32.2135 27.9887L32.9182 28.2907C35.3147 29.3179 36.6639 30.3649 36.6639 32.7209C36.6639 35.2584 34.6703 36.6478 31.992 36.6478C29.3741 36.6478 27.6825 35.3993 26.857 33.7681" fill="black"/>
</g>
</g>
<defs>
<clipPath id="clip0_97_39">
<rect width="48" height="48" fill="white"/>
</clipPath>
<clipPath id="clip1_97_39">
<rect width="30" height="30" fill="white" transform="translate(9 9)"/>
</clipPath>
</defs>
</svg>
