<svg width="20" height="25" viewBox="0 0 20 25" fill="none" xmlns="http://www.w3.org/2000/svg">
<path d="M6.44112 1.16335C6.14035 0.284548 5.34742 -0.183199 4.58964 0.0672113L1.15229 1.20114C0.472635 1.42793 0 2.17443 0 3.02488C0 14.7138 7.83559 24.1916 17.4992 24.1916C18.2023 24.1916 18.8195 23.6199 19.007 22.7978L19.9444 18.6401C20.1515 17.7235 19.7648 16.7644 19.0382 16.4006L15.2884 14.5107C14.6517 14.1894 13.9134 14.4115 13.4799 15.0587L11.9018 17.388C9.15194 15.8147 6.92548 13.1216 5.62475 9.7954L7.55045 7.89134C8.08558 7.36217 8.26917 6.47393 8.00355 5.7038L6.44112 1.16807V1.16335Z" fill="#080063"/>
</svg>
