<svg width="48" height="48" viewBox="0 0 48 48" fill="none" xmlns="http://www.w3.org/2000/svg">
<g clip-path="url(#clip0_97_48)">
<path d="M0 24C0 10.745 10.745 0 24 0C37.255 0 48 10.745 48 24C48 37.255 37.255 48 24 48C10.745 48 0 37.255 0 24Z" fill="white"/>
<g clip-path="url(#clip1_97_48)">
<path d="M24 32.7904C35.0457 32.7904 44 28.8079 44 23.8952C44 18.9825 35.0457 15 24 15C12.9543 15 4 18.9825 4 23.8952C4 28.8079 12.9543 32.7904 24 32.7904Z" fill="#8993BE"/>
<path fill-rule="evenodd" clip-rule="evenodd" d="M9.61646 29.1621L11.8083 19.6816H16.8766C19.0683 19.7987 20.1643 20.735 20.1643 22.3737C20.1643 25.1827 17.5616 26.8213 15.2327 26.7042H12.7672L12.2193 29.1621H9.61646ZM13.315 24.9487L14 21.4373H15.7808C16.7397 21.4373 17.4246 21.7884 17.4246 22.4906C17.2877 24.4805 16.1918 24.8316 14.959 24.9487H13.315ZM19.655 26.7042L21.8468 17.2239H24.4496L23.9016 19.6816H26.3672C28.5591 19.7987 29.381 20.735 29.1071 21.9055L28.1482 26.7042H25.4085L26.3674 22.3737C26.5043 21.7884 26.5043 21.4373 25.5455 21.4373H23.4907L22.2579 26.7042H19.655ZM27.9727 29.1621L30.1644 19.6816H35.2329C37.4247 19.7987 38.5207 20.735 38.5207 22.3737C38.5207 25.1827 35.9179 26.8213 33.5891 26.7042H31.1233L30.5754 29.1621H27.9727ZM31.6711 24.9487L32.3561 21.4373H34.1371C35.096 21.4373 35.7808 21.7884 35.7808 22.4906C35.644 24.4805 34.548 24.8316 33.3152 24.9487H31.6713H31.6711Z" fill="#232531"/>
</g>
</g>
<defs>
<clipPath id="clip0_97_48">
<rect width="48" height="48" fill="white"/>
</clipPath>
<clipPath id="clip1_97_48">
<rect width="40" height="17.8947" fill="white" transform="translate(4 15)"/>
</clipPath>
</defs>
</svg>
