<svg width="48" height="48" viewBox="0 0 48 48" fill="none" xmlns="http://www.w3.org/2000/svg">
<g clip-path="url(#clip0_97_34)">
<path d="M0 24C0 10.745 10.745 0 24 0C37.255 0 48 10.745 48 24C48 37.255 37.255 48 24 48C10.745 48 0 37.255 0 24Z" fill="white"/>
<path d="M23.9999 26.6824C25.4821 26.6824 26.6837 25.4809 26.6837 23.9987C26.6837 22.5165 25.4821 21.3149 23.9999 21.3149C22.5177 21.3149 21.3162 22.5165 21.3162 23.9987C21.3162 25.4809 22.5177 26.6824 23.9999 26.6824Z" fill="#53C1DE"/>
<path d="M14.6425 28.7514C14.9062 28.8389 15.17 28.9276 15.44 29.0039C15.3525 29.3551 15.2763 29.7014 15.205 30.0589C14.59 33.3114 15.07 35.8889 16.605 36.7739C18.1875 37.6876 20.8475 36.7501 23.4375 34.4826C23.6425 34.3014 23.8475 34.1139 24.0525 33.9139C24.31 34.1664 24.58 34.4064 24.8488 34.6401C27.3563 36.7964 29.835 37.6689 31.365 36.7851C32.9475 35.8714 33.4625 33.1001 32.795 29.7251C32.7409 29.4604 32.6821 29.1966 32.6188 28.9339C32.8063 28.8814 32.9875 28.8226 33.17 28.7639C36.5513 27.6451 39 25.8339 39 23.9764C39 22.2014 36.6912 20.4789 33.5037 19.3826C33.1891 19.2779 32.8728 19.1771 32.555 19.0826C32.6075 18.8664 32.655 18.6489 32.7013 18.4326C33.4225 14.9401 32.9475 12.1351 31.3475 11.2089C29.8062 10.3239 27.2925 11.2439 24.75 13.4589C24.4975 13.6751 24.2525 13.9039 24.0175 14.1326C23.8581 13.9793 23.696 13.8288 23.5312 13.6814C20.865 11.3139 18.1937 10.3176 16.5938 11.2501C15.0587 12.1414 14.6013 14.7839 15.2463 18.0864C15.3113 18.4151 15.3812 18.7364 15.4625 19.0651C15.0875 19.1701 14.7188 19.2876 14.3725 19.4114C11.2437 20.4951 9 22.2064 9 23.9764C9 25.8051 11.39 27.6376 14.6425 28.7514ZM22.6112 33.5251C21.6452 34.4107 20.525 35.1119 19.3062 35.5939C18.6562 35.9039 17.9062 35.9339 17.2375 35.6701C16.3063 35.1314 15.9187 33.0626 16.4462 30.2789C16.5112 29.9514 16.5813 29.6226 16.6625 29.3001C17.975 29.5814 19.2987 29.7751 20.6412 29.8739C21.4158 30.9709 22.2614 32.0161 23.1725 33.0026C22.985 33.1839 22.7975 33.3601 22.61 33.5239L22.6112 33.5251ZM30.0525 22.5226C29.779 22.0056 29.4956 21.4938 29.2025 20.9876C28.915 20.4901 28.6162 19.9976 28.3062 19.5114C29.25 19.6289 30.1525 19.7864 30.9963 19.9801C30.7262 20.8435 30.4112 21.6922 30.0525 22.5226ZM30.0637 25.4401C30.4387 26.2901 30.7675 27.1514 31.0537 28.0364C30.145 28.2414 29.2262 28.4001 28.3 28.5051C28.9318 27.5094 29.5203 26.4867 30.0637 25.4401ZM29.3862 23.9826C28.5999 25.6004 27.7037 27.1624 26.7038 28.6576C25.8312 28.7226 24.9225 28.7514 24.0025 28.7514C23.0825 28.7514 22.1925 28.7226 21.3312 28.6689C20.3143 27.1848 19.4113 25.6257 18.63 24.0051H18.6275C19.4024 22.3867 20.2996 20.8296 21.3112 19.3476C23.1021 19.215 24.9004 19.215 26.6912 19.3476C27.1887 20.0864 27.6637 20.8414 28.115 21.6151C28.565 22.3899 28.989 23.1795 29.3862 23.9826ZM18.79 20.9989C18.5025 21.4964 18.2212 22.0051 17.9575 22.5214C17.6036 21.6859 17.2908 20.8336 17.02 19.9676C17.8637 19.7801 18.76 19.6276 19.6913 19.5101C19.3825 19.9964 19.0775 20.4939 18.79 20.9989ZM17.9587 25.4864C18.2288 26.0026 18.5037 26.5126 18.7962 27.0164C19.095 27.5264 19.4 28.0364 19.7225 28.5339C18.8092 28.4344 17.9018 28.2875 17.0037 28.0939C17.2612 27.2501 17.5837 26.3776 17.9587 25.4864ZM24.0475 32.1001C23.4203 31.4218 22.8279 30.7121 22.2725 29.9739C23.4421 30.0217 24.6131 30.0196 25.7825 29.9676C25.2438 30.7098 24.6646 31.4217 24.0475 32.1001ZM31.7063 33.8601C31.6788 34.2155 31.5788 34.5614 31.4124 34.8766C31.2459 35.1918 31.0167 35.4695 30.7388 35.6926C29.8075 36.2314 27.8212 35.5289 25.6763 33.6889C25.4239 33.4692 25.1759 33.2446 24.9325 33.0151C25.8279 32.0265 26.654 30.9774 27.405 29.8751C28.7498 29.7636 30.0852 29.5581 31.4012 29.2601C31.46 29.5001 31.5125 29.7401 31.56 29.9751C31.8461 31.2502 31.8957 32.5671 31.7063 33.8601ZM32.215 20.2901C32.52 20.3776 32.8125 20.4714 33.0938 20.5651C35.8237 21.5026 37.74 22.8976 37.74 23.9639C37.74 25.1126 35.695 26.5951 32.7712 27.5614C32.6075 27.6139 32.4437 27.6664 32.2738 27.7139C31.8607 26.4354 31.3616 25.1863 30.78 23.9751C31.3425 22.7801 31.8175 21.5489 32.215 20.2901ZM25.575 14.4076C27.7563 12.5101 29.7887 11.7664 30.715 12.2989C31.705 12.8676 32.0863 15.1639 31.465 18.1814C31.4259 18.3781 31.3809 18.5736 31.33 18.7676C30.0306 18.4736 28.7131 18.266 27.3862 18.1464C26.6256 17.0536 25.7916 16.0137 24.89 15.0339C25.1187 14.8176 25.3412 14.6126 25.575 14.4076ZM24.0125 15.9314C24.6275 16.5989 25.2075 17.3014 25.7463 18.0276C24.5848 17.9751 23.4215 17.9751 22.26 18.0276C22.8337 17.2726 23.4263 16.5701 24.0125 15.9314ZM17.215 12.3401C18.2 11.7664 20.385 12.5864 22.6875 14.6251C22.8337 14.7539 22.98 14.8951 23.1325 15.0351C22.2253 16.0138 21.3855 17.0529 20.6187 18.1451C19.2945 18.2635 17.9793 18.4673 16.6813 18.7551C16.605 18.4564 16.5412 18.1514 16.4762 17.8464C15.925 15.0101 16.2888 12.8726 17.215 12.3401ZM14.7837 20.6001C15.1175 20.4826 15.4575 20.3776 15.7975 20.2776C16.1959 21.549 16.6752 22.7937 17.2325 24.0039C16.67 25.2289 16.1837 26.4939 15.78 27.7826L15.7787 27.7839C15.5346 27.7142 15.2925 27.6379 15.0525 27.5551C13.805 27.1626 12.3863 26.5414 11.3613 25.7276C11.0687 25.5252 10.8202 25.2655 10.6309 24.9643C10.4416 24.6631 10.3154 24.3265 10.26 23.9751C10.26 22.9026 12.1112 21.5314 14.7837 20.6001Z" fill="#53C1DE"/>
</g>
<defs>
<clipPath id="clip0_97_34">
<rect width="48" height="48" fill="white"/>
</clipPath>
</defs>
</svg>
