<svg width="48" height="48" viewBox="0 0 48 48" fill="none" xmlns="http://www.w3.org/2000/svg">
<g clip-path="url(#clip0_97_44)">
<path d="M0 24C0 10.745 10.745 0 24 0C37.255 0 48 10.745 48 24C48 37.255 37.255 48 24 48C10.745 48 0 37.255 0 24Z" fill="white"/>
<path d="M33.917 25.2226C32.9557 25.2276 32.1232 25.4582 31.4257 25.8026C31.1707 25.2932 30.912 24.8451 30.8688 24.512C30.8182 24.1232 30.7595 23.8907 30.8207 23.4276C30.882 22.9645 31.1501 22.3082 31.1463 22.2588C31.1426 22.2095 31.0863 21.9738 30.532 21.9695C29.9776 21.9657 29.5032 22.0763 29.4476 22.2226C29.392 22.3688 29.2851 22.6982 29.2188 23.042C29.122 23.5445 28.112 25.3376 27.5388 26.2751C27.3513 25.9088 27.192 25.5863 27.1588 25.3313C27.1082 24.9426 27.0495 24.7101 27.1107 24.247C27.172 23.7838 27.4401 23.1276 27.4363 23.0782C27.4326 23.0288 27.3763 22.7932 26.822 22.7888C26.2676 22.7851 25.7932 22.8957 25.7376 23.042C25.682 23.1882 25.622 23.5301 25.5088 23.8613C25.3951 24.192 24.0532 27.1826 23.7013 27.9582C23.522 28.3532 23.3663 28.6707 23.2563 28.887L23.2557 28.8857C23.2557 28.8857 23.2488 28.9001 23.2376 28.9245C23.1432 29.1088 23.0876 29.2107 23.0876 29.2107C23.0876 29.2107 23.0882 29.212 23.0895 29.2145C23.0145 29.3501 22.9345 29.4757 22.8951 29.4757C22.8676 29.4757 22.812 29.1151 22.907 28.6201C23.107 27.5826 23.5863 25.9651 23.582 25.9088C23.5795 25.8801 23.6713 25.5982 23.2688 25.4507C22.8776 25.3076 22.7382 25.5463 22.7026 25.547C22.6682 25.5476 22.6426 25.6313 22.6426 25.6313C22.6426 25.6313 23.0782 23.812 21.8113 23.812C21.0188 23.812 19.9213 24.6788 19.3807 25.4645C19.0395 25.6507 18.3088 26.0495 17.5345 26.4751C17.237 26.6388 16.9332 26.8057 16.6451 26.9645C16.6257 26.9426 16.6057 26.9213 16.5857 26.8995C15.0488 25.2601 12.2088 24.1007 12.3288 21.8963C12.3726 21.0951 12.6513 18.9851 17.787 16.4263C21.9938 14.3301 25.362 14.907 25.9438 16.1851C26.7751 18.012 24.1438 21.4063 19.7751 21.8963C18.1107 22.0832 17.2338 21.4376 17.0157 21.1976C16.7863 20.9445 16.752 20.9332 16.6663 20.9807C16.527 21.0582 16.6151 21.2813 16.6663 21.4145C16.797 21.7538 17.332 22.3557 18.2445 22.6557C19.0476 22.9195 21.002 23.0638 23.3651 22.1495C26.0126 21.1257 28.0795 18.277 27.472 15.8963C26.8545 13.4751 22.8395 12.6788 19.0395 14.0288C16.7751 14.8326 14.327 16.0938 12.5663 17.7401C10.4732 19.6976 10.1395 21.402 10.277 22.1138C10.7657 24.6438 14.2526 26.2913 15.6488 27.512C15.5801 27.5501 15.5151 27.5857 15.4563 27.6182C14.7563 27.9645 12.0982 29.3557 11.4332 30.8251C10.6788 32.492 11.5532 33.6882 12.132 33.8495C13.9251 34.3482 15.7651 33.4507 16.7545 31.9757C17.7432 30.5013 17.6226 28.5807 17.1688 27.7045C17.1632 27.6938 17.157 27.6832 17.1513 27.672C17.332 27.5651 17.5163 27.4563 17.6988 27.3488C18.0551 27.1395 18.4051 26.9445 18.7082 26.7795C18.5382 27.2445 18.4138 27.8026 18.3495 28.6082C18.2732 29.5545 18.6613 30.7776 19.1688 31.2588C19.3926 31.4707 19.6613 31.4757 19.8313 31.4757C20.422 31.4757 20.6913 30.9845 20.9882 30.4032C21.352 29.6907 21.6751 28.8607 21.6751 28.8607C21.6751 28.8607 21.2701 31.102 22.3738 31.102C22.7763 31.102 23.1807 30.5801 23.3613 30.3145C23.362 30.3176 23.362 30.3188 23.362 30.3188C23.362 30.3188 23.3726 30.3013 23.3932 30.267C23.4351 30.2032 23.4588 30.1626 23.4588 30.1626C23.4588 30.1626 23.4595 30.1582 23.4607 30.1507C23.6226 29.8701 23.9813 29.2301 24.5188 28.1745C25.2138 26.8107 25.8801 25.102 25.8801 25.102C25.8801 25.102 25.942 25.5195 26.1451 26.2107C26.2645 26.617 26.5182 27.0663 26.7188 27.4976C26.5576 27.7213 26.4588 27.8495 26.4588 27.8495C26.4588 27.8495 26.4595 27.852 26.4613 27.8563C26.3326 28.0276 26.1882 28.212 26.037 28.392C25.4882 29.0451 24.8351 29.7913 24.7476 30.0063C24.6445 30.2601 24.6688 30.4463 24.8682 30.597C25.0138 30.7063 25.2726 30.7238 25.5432 30.7057C26.0363 30.6726 26.3826 30.5501 26.5538 30.4757C26.8207 30.3813 27.1313 30.2332 27.4226 30.0188C27.9607 29.6232 28.2851 29.0576 28.2538 28.3076C28.2363 27.8945 28.1051 27.4851 27.9382 27.0988C27.987 27.0288 28.0357 26.9576 28.0851 26.8863C28.9332 25.6463 29.5913 24.2838 29.5913 24.2838C29.5913 24.2838 29.6532 24.7013 29.8563 25.3926C29.9588 25.742 30.162 26.1238 30.3445 26.4976C29.547 27.1457 29.0526 27.8988 28.8807 28.3926C28.5632 29.3063 28.812 29.7201 29.2782 29.8145C29.4895 29.857 29.7882 29.7601 30.0126 29.6651C30.292 29.5726 30.6276 29.4182 30.9413 29.1876C31.4795 28.792 31.997 28.2382 31.9657 27.4888C31.9513 27.1476 31.8588 26.8088 31.7332 26.4838C32.4095 26.202 33.2845 26.0457 34.3995 26.1757C36.7913 26.4551 37.2601 27.9482 37.1707 28.5732C37.0807 29.1982 36.5795 29.542 36.4113 29.6457C36.2438 29.7495 36.1926 29.7857 36.2063 29.8626C36.227 29.9745 36.3045 29.9707 36.4476 29.9463C36.6445 29.9132 37.7032 29.4382 37.7488 28.2845C37.8057 26.8182 36.4026 25.2095 33.917 25.2226ZM15.4813 31.4376C14.6888 32.302 13.5826 32.6282 13.1076 32.3532C12.5951 32.0563 12.7982 30.7838 13.7701 29.8663C14.3626 29.3076 15.1276 28.7926 15.6351 28.4757C15.7507 28.4063 15.9201 28.3045 16.1263 28.1807C16.1607 28.1613 16.1801 28.1507 16.1801 28.1507L16.1795 28.1495C16.2195 28.1257 16.2601 28.1013 16.302 28.0757C16.6563 29.3813 16.3132 30.5307 15.4813 31.4376ZM21.2532 27.5145C20.9776 28.187 20.4001 29.9082 20.0482 29.8157C19.7463 29.7363 19.5626 28.4282 19.9882 27.1407C20.202 26.4926 20.6595 25.7182 20.9282 25.4176C21.3607 24.9338 21.837 24.7757 21.9526 24.972C22.0995 25.222 21.4263 27.0926 21.2532 27.5145ZM26.0213 29.7895C25.9045 29.8507 25.797 29.8888 25.7476 29.8595C25.7107 29.8376 25.7957 29.757 25.7957 29.757C25.7957 29.757 26.392 29.1151 26.627 28.8232C26.7638 28.6532 26.922 28.4513 27.0945 28.2263C27.0957 28.2488 27.0963 28.2713 27.0963 28.2932C27.0951 29.062 26.3526 29.5807 26.0213 29.7895ZM29.6945 28.952C29.607 28.8901 29.622 28.6895 29.9088 28.0638C30.0213 27.8182 30.2788 27.4051 30.7251 27.0101C30.777 27.1726 30.8082 27.3282 30.8076 27.4732C30.802 28.4407 30.112 28.802 29.6945 28.952Z" fill="#F06292"/>
</g>
<defs>
<clipPath id="clip0_97_44">
<rect width="48" height="48" fill="white"/>
</clipPath>
</defs>
</svg>
