<svg width="48" height="48" viewBox="0 0 48 48" fill="none" xmlns="http://www.w3.org/2000/svg">
<g clip-path="url(#clip0_105_2)">
<path d="M0 24C0 10.745 10.745 0 24 0C37.255 0 48 10.745 48 24C48 37.255 37.255 48 24 48C10.745 48 0 37.255 0 24Z" fill="white"/>
<path d="M38.0833 15.1011V33.899C38.0833 34.8251 37.5072 35.649 36.6395 35.9553L30.2083 38.974L30.7916 31.0626V17.9376L30.2083 10.0261L36.6395 13.0449C37.5072 13.3511 38.0833 14.1751 38.0833 15.1011Z" fill="#29B6F6"/>
<path d="M12.5625 31.7158L30.7916 17.9374V10.9031C30.7916 10.0296 29.711 9.62127 29.1328 10.2761L9.39641 28.32C8.74016 28.9252 8.77735 29.973 9.47443 30.5309C9.47443 30.5309 10.4398 31.4292 10.7891 31.6786C11.3258 32.0614 12.0309 32.1051 12.5625 31.7158Z" fill="#0277BD"/>
<path d="M12.5625 17.2842L30.7916 31.0626V38.0968C30.7916 38.9704 29.711 39.3787 29.1328 38.7239L9.39641 20.68C8.74016 20.0747 8.77735 19.0269 9.47443 18.4691C9.47443 18.4691 10.4398 17.5708 10.7891 17.3214C11.3258 16.9386 12.0309 16.8948 12.5625 17.2842Z" fill="#0288D1"/>
</g>
<defs>
<clipPath id="clip0_105_2">
<rect width="48" height="48" fill="white"/>
</clipPath>
</defs>
</svg>
