<svg width="48" height="48" viewBox="0 0 48 48" fill="none" xmlns="http://www.w3.org/2000/svg">
<g clip-path="url(#clip0_97_54)">
<path d="M0 24C0 10.745 10.745 0 24 0C37.255 0 48 10.745 48 24C48 37.255 37.255 48 24 48C10.745 48 0 37.255 0 24Z" fill="white"/>
<g clip-path="url(#clip1_97_54)">
<mask id="mask0_97_54" style="mask-type:luminance" maskUnits="userSpaceOnUse" x="6" y="7" width="35" height="35">
<path d="M6.00024 7H41V42H6.00024V7Z" fill="white"/>
</mask>
<g mask="url(#mask0_97_54)">
<path d="M8.4878 24.4996C8.4878 30.4422 11.9411 35.5772 16.9488 38.0111L9.78755 18.3899C8.92908 20.3123 8.48617 22.3942 8.4878 24.4996ZM33.6351 23.742C33.6351 21.8867 32.9686 20.6017 32.397 19.6016C31.636 18.365 30.923 17.3178 30.923 16.0812C30.923 14.7011 31.9694 13.4165 33.4437 13.4165C33.5102 13.4165 33.5734 13.4248 33.6385 13.4285C30.9673 10.9816 27.4088 9.48755 23.5004 9.48755C18.2557 9.48755 13.6414 12.1785 10.957 16.2543C11.3093 16.2648 11.6415 16.272 11.9232 16.272C13.4934 16.272 15.9241 16.0815 15.9241 16.0815C16.7334 16.0337 16.8288 17.2224 16.0207 17.3181C16.0207 17.3181 15.2071 17.4138 14.3021 17.4612L19.7691 33.7224L23.0548 23.8691L20.7155 17.4609C19.9071 17.4135 19.1412 17.3178 19.1412 17.3178C18.3322 17.2704 18.4271 16.0335 19.2361 16.0812C19.2361 16.0812 21.7153 16.2717 23.1905 16.2717C24.7605 16.2717 27.1914 16.0812 27.1914 16.0812C28.0013 16.0335 28.0964 17.2221 27.2877 17.3178C27.2877 17.3178 26.4727 17.4135 25.5694 17.4609L30.9947 33.599L32.4919 28.5951C33.1412 26.5186 33.6351 25.0272 33.6351 23.742Z" fill="#00749A"/>
<path d="M23.7638 25.8127L19.2595 38.9011C20.6366 39.3069 22.0648 39.513 23.5004 39.513C25.2487 39.513 26.9252 39.2105 28.4858 38.662C28.4439 38.5965 28.4082 38.5272 28.379 38.4552L23.7638 25.8127ZM36.6734 17.2969C36.738 17.7751 36.7745 18.2887 36.7745 18.8406C36.7745 20.364 36.49 22.0765 35.633 24.2179L31.0473 37.4762C35.5105 34.8736 38.5125 30.0382 38.5125 24.4995C38.5165 21.982 37.8838 19.5043 36.6734 17.2969Z" fill="#00749A"/>
<path d="M23.5004 7C13.8511 7 6.00024 14.8502 6.00024 24.4996C6.00024 34.15 13.8508 42.0003 23.5004 42.0003C33.1494 42.0003 41.0014 34.1503 41.0014 24.4996C41.0011 14.8502 33.1494 7 23.5004 7ZM23.5004 41.1979C14.2935 41.1979 6.80266 33.707 6.80266 24.4996C6.80266 15.293 14.2933 7.80271 23.5004 7.80271C32.7069 7.80271 40.1973 15.293 40.1973 24.4996C40.1973 33.707 32.7067 41.1979 23.5004 41.1979Z" fill="#00749A"/>
</g>
</g>
</g>
<defs>
<clipPath id="clip0_97_54">
<rect width="48" height="48" fill="white"/>
</clipPath>
<clipPath id="clip1_97_54">
<rect width="35" height="35" fill="white" transform="translate(6 7)"/>
</clipPath>
</defs>
</svg>
