<svg width="48" height="48" viewBox="0 0 48 48" fill="none" xmlns="http://www.w3.org/2000/svg">
<path d="M0 24C0 10.745 10.745 0 24 0C37.255 0 48 10.745 48 24C48 37.255 37.255 48 24 48C10.745 48 0 37.255 0 24Z" fill="white"/>
<path fill-rule="evenodd" clip-rule="evenodd" d="M11.3948 29.2893L9.56332 29.9587L9.46362 35.4048L15.8013 33.089C13.6308 32.3599 12.0414 31.0752 11.3948 29.2893Z" fill="#FDBD39"/>
<path fill-rule="evenodd" clip-rule="evenodd" d="M12.3519 23.5298L6 25.8484L9.56332 29.9586L11.3948 29.2892C10.7482 27.509 11.147 25.498 12.3519 23.5298Z" fill="#F69833"/>
<path fill-rule="evenodd" clip-rule="evenodd" d="M23.0446 15.6683C14.9552 18.6249 9.73982 24.7233 11.3947 29.2892L40.6903 18.5879C39.0354 14.0191 31.134 12.7145 23.0446 15.6683Z" fill="#FECF33"/>
<path fill-rule="evenodd" clip-rule="evenodd" d="M29.0405 32.2088C37.1299 29.2522 42.3566 23.1823 40.6903 18.5879L11.3948 29.2892C13.0611 33.8837 20.9511 35.1654 29.0405 32.2088Z" fill="#EE6723"/>
<path fill-rule="evenodd" clip-rule="evenodd" d="M40.6903 18.5879L11.3948 29.2892C11.9673 30.8701 14.1549 31.6505 17.2254 31.6505C20.219 31.6505 24.0501 30.91 28.0435 29.4516C36.1329 26.4978 41.824 21.7126 40.6903 18.5879Z" fill="#F69833"/>
<path fill-rule="evenodd" clip-rule="evenodd" d="M34.8598 16.2266C31.8661 16.2266 28.0379 16.9671 24.0416 18.4255C15.9522 21.3821 10.2612 26.1645 11.392 29.2892L40.6875 18.5879C40.1179 17.0042 37.9303 16.2266 34.8598 16.2266Z" fill="#FDBD39"/>
<path fill-rule="evenodd" clip-rule="evenodd" d="M33.2418 35.6951C32.3788 35.6951 31.1084 34.9175 29.4621 33.3794C27.5138 31.5622 25.2835 28.9018 23.1814 25.8882C21.0793 22.8746 19.3503 19.8582 18.3164 17.4C17.1884 14.7226 17.0289 13.0733 17.8378 12.5037C18.0144 12.3783 18.2309 12.3157 18.473 12.3157C19.131 12.3157 20.4156 12.8056 22.7912 15.1441L22.8424 15.1954L22.8367 15.2694C22.8196 15.4375 22.8054 15.6084 22.7912 15.7736L22.7655 16.104L22.532 15.8704C19.9741 13.2927 18.8462 13.0135 18.4816 13.0135C18.3762 13.0135 18.2936 13.0335 18.2338 13.0762C17.8834 13.324 17.8606 14.5317 18.9515 17.1294C19.9684 19.5449 21.6717 22.5129 23.7454 25.4866C25.8218 28.4631 28.0179 31.0836 29.932 32.8696C31.9943 34.7922 32.9228 35.0001 33.2276 35.0001C33.333 35.0001 33.4184 34.9774 33.4811 34.9346C33.8514 34.6726 33.8514 33.3794 32.6323 30.5823L32.5753 30.4541L32.6978 30.3886C32.8203 30.3203 32.9399 30.2547 33.051 30.1921L33.1991 30.1095L33.2675 30.2633C34.1334 32.2429 34.9395 34.7609 33.8799 35.5043C33.7033 35.6296 33.4897 35.6951 33.2418 35.6951Z" fill="#EE6723"/>
<path fill-rule="evenodd" clip-rule="evenodd" d="M29.2369 32.1262L29.2255 32.28C29.0205 34.8094 28.4821 37.8543 27.0779 37.9767C27.0494 37.9796 27.0209 37.9796 26.9896 37.9796C26.0354 37.9796 25.1324 36.6124 24.3064 33.9178C23.5259 31.3685 22.9192 27.9448 22.6002 24.2761C22.2812 20.6102 22.2841 17.1323 22.6145 14.4833C22.9734 11.5979 23.6541 10.0911 24.6397 10.0028C24.6681 10 24.6995 10 24.7308 10C25.423 10 26.4655 10.7833 27.5336 14.4321L26.8358 14.5659C26.4797 13.3468 26.0895 12.3556 25.705 11.672C25.3489 11.0425 25.0014 10.695 24.728 10.695C24.7194 10.695 24.7109 10.695 24.7023 10.695C24.2751 10.732 23.6541 11.7688 23.3066 14.5659C22.9848 17.1665 22.9791 20.5931 23.2952 24.2105C23.6114 27.8308 24.2067 31.2033 24.9758 33.707C25.3204 34.8293 25.6964 35.7522 26.0667 36.3788C26.4085 36.957 26.7361 37.276 26.9953 37.276C27.0038 37.276 27.0124 37.276 27.0209 37.276C27.4311 37.239 28.2001 36.1623 28.5248 32.3683L29.2369 32.1262Z" fill="#EE6723"/>
</svg>
